<svg xmlns="http://www.w3.org/2000/svg" width="100" height="100" viewBox="0 0 100 100"><path d="M95.2 21.2a14.4 14.4 0 0 0-7.9-4.3 5.1 5.1 0 0 1-4.2-4.2 14.4 14.4 0 0 0-4.3-7.9 14.7 14.7 0 0 0-19.9-.3 14.7 14.7 0 0 0-2.5 18.7 4.1 4.1 0 0 1-.6 5.1L28.3 55.8a4.1 4.1 0 0 1-5.1.6 14.7 14.7 0 0 0-18.7 2.5 14.7 14.7 0 0 0 .3 19.9 14.4 14.4 0 0 0 7.9 4.3 5.1 5.1 0 0 1 4.2 4.2 14.4 14.4 0 0 0 4.3 7.9 14.7 14.7 0 0 0 19.9.2 14.6 14.6 0 0 0 2.5-18.6 4.1 4.1 0 0 1 .6-5.1l27.5-27.5a4.1 4.1 0 0 1 5.1-.6 14.6 14.6 0 0 0 18.6-2.5 14.7 14.7 0 0 0-.2-19.9z"/></svg>