<svg xmlns="http://www.w3.org/2000/svg"><symbol id="arrow-right" viewBox="0 0 100 100"><path d="M22.3 84.3L56.5 50 22.3 15.7a8.2 8.2 0 0 1 0-11.7h.1a8.3 8.3 0 0 1 11.7 0l46.1 46-46.1 46.1a8.3 8.3 0 0 1-11.7 0h-.1a8.2 8.2 0 0 1 0-11.8z"/></symbol><symbol id="bone" viewBox="0 0 100 100"><path d="M95.2 21.2a14.4 14.4 0 0 0-7.9-4.3 5.1 5.1 0 0 1-4.2-4.2 14.4 14.4 0 0 0-4.3-7.9 14.7 14.7 0 0 0-19.9-.3 14.7 14.7 0 0 0-2.5 18.7 4.1 4.1 0 0 1-.6 5.1L28.3 55.8a4.1 4.1 0 0 1-5.1.6 14.7 14.7 0 0 0-18.7 2.5 14.7 14.7 0 0 0 .3 19.9 14.4 14.4 0 0 0 7.9 4.3 5.1 5.1 0 0 1 4.2 4.2 14.4 14.4 0 0 0 4.3 7.9 14.7 14.7 0 0 0 19.9.2 14.6 14.6 0 0 0 2.5-18.6 4.1 4.1 0 0 1 .6-5.1l27.5-27.5a4.1 4.1 0 0 1 5.1-.6 14.6 14.6 0 0 0 18.6-2.5 14.7 14.7 0 0 0-.2-19.9z"/></symbol><symbol id="instagram" viewBox="0 0 100 100"><path d="M98.5 50A48.5 48.5 0 1 1 50 1.5 48.5 48.5 0 0 1 98.5 50zM76.8 39c-.2-1.5-.4-3-.7-4.4a14.3 14.3 0 0 0-13.3-11.2l-1.5-.2H38.7a40.5 40.5 0 0 0-4.8.9A14.1 14.1 0 0 0 23.4 37a8.8 8.8 0 0 1-.2 1.7v22.6a47.6 47.6 0 0 0 1 5.2 14.1 14.1 0 0 0 13 10.1l1.8.2h22a36.9 36.9 0 0 0 4.6-.8 14.2 14.2 0 0 0 11-13.2 11 11 0 0 1 .2-1.8z"/><path d="M50 41.1a8.9 8.9 0 0 0 0 17.8 8.9 8.9 0 0 0 0-17.8z"/><path d="M61.7 28.3q-11.7-.2-23.4 0c-5.5.1-9.1 3.1-9.8 8.6s-.3 20.8-.2 24.7c.1 6.1 4 10 10.1 10.1h23.3c6-.1 9.9-4 10-10q.1-11.7 0-23.4c-.1-6-4-9.9-10-10zM50 63.8A13.8 13.8 0 1 1 63.8 50 13.8 13.8 0 0 1 50 63.8zM64.3 39a3.6 3.6 0 0 1-3.3-3.4 3.4 3.4 0 0 1 3.4-3.2 3.3 3.3 0 0 1 3.2 3.3 3.4 3.4 0 0 1-3.3 3.3z"/></symbol><symbol id="facebook" viewBox="0 0 100 100"><path d="M98.5 50A48.5 48.5 0 0 1 50 98.5h-1a48.5 48.5 0 1 1 49.4-50.9 19.3 19.3 0 0 1 .1 2.4zM59 29.8h6.8V20h-9.7c-9.7 0-12.4 7.8-12.4 12.7v9.2h-9.5v11h9.5v27h11v-27h9.2l1.4-11H54.7V34a4.2 4.2 0 0 1 4.3-4.2z"/></symbol><symbol id="logo" viewBox="0 0 100 100"><path d="M74.8 5.3C68.4 4.9 56.1 7.5 50 19.8 43.9 7.5 31.6 4.9 25.2 5.3S-.7 10.4 1.5 35C4.2 65.7 44 85.6 50 94.8c6-9.2 45.8-29.1 48.5-59.8 2.2-24.6-16.9-29.3-23.7-29.7zM49.4 71.5a2.4 2.4 0 0 1-.9 1.5 3.8 3.8 0 0 1-2.2.6h-6.8a2.8 2.8 0 0 1-2-.8 2.6 2.6 0 0 1-.8-2V53l.2-.3h1.8c1.9 0 2.8 1.1 2.8 3.1v13.8l2.8-.2h5.3a12.5 12.5 0 0 1-.2 2.1zm16.3 1.9a6.5 6.5 0 0 1-2 .4 2.1 2.1 0 0 1-1.7-.7 5.1 5.1 0 0 1-1.1-2.1l-1.1-3.2a2.5 2.5 0 0 0-.9-1.3 1.9 1.9 0 0 0-1.6-.5H56v7.5l-2.4.2-2.3-.2V53.1l.2-.2h7.2a9.5 9.5 0 0 1 3 .4 7.1 7.1 0 0 1 2.3 1.1 6.2 6.2 0 0 1 1.5 2 8.8 8.8 0 0 1 .5 2.9 5.8 5.8 0 0 1-.3 1.9 8 8 0 0 1-.8 1.6 4.6 4.6 0 0 1-1.2 1.2 3.9 3.9 0 0 1-1.4.8 4 4 0 0 1 2.3 2.8l.9 2.5a5.7 5.7 0 0 0 1.5 2.3 3.4 3.4 0 0 1-1.3 1zm18.1-36.6a9.4 9.4 0 0 1 1.8 5.9A9.9 9.9 0 0 1 66 44.6a2.9 2.9 0 0 0-2.8-2.1H36.8a2.9 2.9 0 0 0-2.8 2.1 9.9 9.9 0 0 1-19.6-1.9 9.4 9.4 0 0 1 1.8-5.9 3.6 3.6 0 0 0 0-4A9.9 9.9 0 1 1 34 25a2.9 2.9 0 0 0 2.8 2.2h26.4A2.9 2.9 0 0 0 66 25a9.8 9.8 0 0 1 10.2-7.7 9.8 9.8 0 0 1 7.6 15.5 3.6 3.6 0 0 0 0 4z"/><path d="M58.3 56.4H56v5.9h2.3a3.5 3.5 0 0 0 1.6-.3 2 2 0 0 0 .9-.9 4 4 0 0 0 .3-1.7 2.6 2.6 0 0 0-2.8-3z"/></symbol><symbol id="paw" viewBox="0 0 100 100"><ellipse cx="67" cy="21.6" rx="16.6" ry="13" transform="rotate(-72.2 67.03 21.573)"/><ellipse cx="84.8" cy="49.6" rx="16.6" ry="13" transform="rotate(-68.3 84.732 49.62)"/><path d="M50 92.2c-9 0-16.5 2.1-22.7 2.5S16 89.2 16 84.4C16 72 28.1 67.7 31.8 60.2c2.8-5.4 1.9-21.7 18.2-21.7s15.4 16.3 18.2 21.7C71.9 67.7 84 72 84 84.4c0 4.8-5.1 10.7-11.3 10.3S59 92.2 50 92.2z"/><ellipse cx="33" cy="21.6" rx="13" ry="16.6" transform="rotate(-17.8 32.942 21.515)"/><ellipse cx="15.2" cy="49.6" rx="13" ry="16.6" transform="rotate(-21.7 15.09 49.68)"/></symbol><symbol id="twitter" viewBox="0 0 100 100"><path d="M98.5 50A48.5 48.5 0 0 1 50 98.5h-1a48.5 48.5 0 1 1 49.4-50.9 19.3 19.3 0 0 1 .1 2.4zM82.4 34.3L75 36.7l.5-.3.3-.2.5-.4c2.3-2.2 4-6.7 4.1-7l-6.6 3.4c-5.5-6.7-10.3-6.3-16-3.7s-5.6 12.4-5.6 12.4C31 40.4 25.7 30.8 25.7 30.8c-6.1 9.9 3.8 16.1 3.8 16.1l-5.7-1.8c.3 5.5 4.5 9.2 8.3 11.5l1.6.9.5.2.5.3 2 .8h.3l.7.3h-.4l-.3.2h-.4l-1.3.2a24.5 24.5 0 0 1-7.4-.9 10.7 10.7 0 0 0 5.5 6.5l.5.3.6.3.6.2 2.1.7 1.3.2h.9a.1.1 0 0 1 .1.1h.1l-.7.5-.7.5-1.4.8a27.6 27.6 0 0 1-14.8 3l1.1.5 2.7 1.2 1.1.5 1.6.5 1.1.4 2.3.7.8.3 2.4.5.9.2 1.2.2 1.2.2h2.2c10.1.7 18.2-3 25.7-9.9 10.8-9.8 10.1-26.8 10.1-26.8l.8-.4c.1-.1.3-.2.4-.4a36.5 36.5 0 0 0 4.8-5.8z"/></symbol></svg>