<svg id="Layer_1" data-name="Layer 1" xmlns="http://www.w3.org/2000/svg" width="100" height="100" viewBox="0 0 100 100"><title>logo-bg</title><g id="logo" opacity="0.25" style="isolation:isolate"><path d="M74.8,5.3C68.4,4.9,56.1,7.5,50,19.8,43.9,7.5,31.6,4.9,25.2,5.3S-.7,10.4,1.5,35C4.2,65.7,44,85.6,50,94.8,56,85.6,95.8,65.7,98.5,35,100.7,10.4,81.6,5.7,74.8,5.3ZM49.4,71.5a2.4,2.4,0,0,1-.9,1.5,3.8,3.8,0,0,1-2.2.6H39.5a2.8,2.8,0,0,1-2-.8,2.6,2.6,0,0,1-.8-2V53l.2-.3h1.8c1.9,0,2.8,1.1,2.8,3.1V69.6l2.8-.2h5.3A12.5,12.5,0,0,1,49.4,71.5Zm16.3,1.9a6.5,6.5,0,0,1-2,.4,2.1,2.1,0,0,1-1.7-.7A5.1,5.1,0,0,1,60.9,71l-1.1-3.2a2.5,2.5,0,0,0-.9-1.3,1.9,1.9,0,0,0-1.6-.5H56v7.5l-2.4.2-2.3-.2V53.1l.2-.2h7.2a9.5,9.5,0,0,1,3,.4A7.1,7.1,0,0,1,64,54.4a6.2,6.2,0,0,1,1.5,2,8.8,8.8,0,0,1,.5,2.9,5.8,5.8,0,0,1-.3,1.9,8,8,0,0,1-.8,1.6A4.6,4.6,0,0,1,63.7,64a3.9,3.9,0,0,1-1.4.8,4,4,0,0,1,2.3,2.8l.9,2.5A5.7,5.7,0,0,0,67,72.4,3.4,3.4,0,0,1,65.7,73.4ZM83.8,36.8a9.4,9.4,0,0,1,1.8,5.9A9.9,9.9,0,0,1,66,44.6a2.9,2.9,0,0,0-2.8-2.1H36.8A2.9,2.9,0,0,0,34,44.6a9.9,9.9,0,0,1-19.6-1.9,9.4,9.4,0,0,1,1.8-5.9,3.6,3.6,0,0,0,0-4A9.9,9.9,0,1,1,34,25a2.9,2.9,0,0,0,2.8,2.2H63.2A2.9,2.9,0,0,0,66,25a9.8,9.8,0,0,1,10.2-7.7,9.8,9.8,0,0,1,7.6,15.5A3.6,3.6,0,0,0,83.8,36.8Z" fill="#3bc1c9"/><path d="M58.3,56.4H56v5.9h2.3a3.5,3.5,0,0,0,1.6-.3,2,2,0,0,0,.9-.9,4,4,0,0,0,.3-1.7A2.6,2.6,0,0,0,58.3,56.4Z" fill="#3bc1c9"/></g></svg>