<svg xmlns="http://www.w3.org/2000/svg" width="100" height="100" viewBox="0 0 100 100"><path d="M50 19.8C56.1 7.5 68.4 4.9 74.8 5.3s25.9 5.1 23.7 29.7C95.8 65.7 56 85.6 50 94.8 44 85.6 4.2 65.7 1.5 35-.7 10.4 18.4 5.7 25.2 5.3S43.9 7.5 50 19.8zm35.6 22.9a9.4 9.4 0 0 0-1.8-5.9 3.6 3.6 0 0 1 0-4A9.9 9.9 0 1 0 66 25a2.9 2.9 0 0 1-2.8 2.2H36.8A2.9 2.9 0 0 1 34 25a9.8 9.8 0 0 0-10.2-7.7 9.8 9.8 0 0 0-7.6 15.5 3.6 3.6 0 0 1 0 4 9.4 9.4 0 0 0-1.8 5.9A9.9 9.9 0 0 0 34 44.6a2.9 2.9 0 0 1 2.8-2.1h26.4a2.9 2.9 0 0 1 2.8 2.1 9.9 9.9 0 0 0 19.6-1.9zM49.2 68.5H41V53h-5.7v20.8h13.9zm13.9-3.6a4.6 4.6 0 0 0 1.6-1.5A7 7 0 0 0 66 59a6.2 6.2 0 0 0-.7-3.1 5.2 5.2 0 0 0-2-1.9 7.4 7.4 0 0 0-2.6-1 12.7 12.7 0 0 0-2.8-.3h-4.1l-1.4.2-.8.2v20.7h5.7v-7.5h.3l4.3 7.5h6.5zM57.3 58h.9a2.7 2.7 0 0 1 1.5.4 1.5 1.5 0 0 1 .5 1.2 1.8 1.8 0 0 1-.6 1.5 3 3 0 0 1-1.8.5h-.5z"/></svg>