<svg id="Layer_1" data-name="Layer 1" xmlns="http://www.w3.org/2000/svg" width="100" height="100" viewBox="0 0 100 100"><title>paw-bg</title><g id="paw" opacity="0.25" style="isolation:isolate"><ellipse cx="67" cy="21.6" rx="16.6" ry="13" transform="translate(26 78.8) rotate(-72.2)" fill="#3bc1c9"/><ellipse cx="84.8" cy="49.6" rx="16.6" ry="13" transform="translate(7.3 110) rotate(-68.3)" fill="#3bc1c9"/><path d="M50,92.2c-9,0-16.5,2.1-22.7,2.5S16,89.2,16,84.4C16,72,28.1,67.7,31.8,60.2c2.8-5.4,1.9-21.7,18.2-21.7S65.4,54.8,68.2,60.2C71.9,67.7,84,72,84,84.4c0,4.8-5.1,10.7-11.3,10.3S59,92.2,50,92.2Z" fill="#3bc1c9"/><ellipse cx="33" cy="21.6" rx="13" ry="16.6" transform="translate(-5 11.1) rotate(-17.8)" fill="#3bc1c9"/><ellipse cx="15.2" cy="49.6" rx="13" ry="16.6" transform="translate(-17.3 9.1) rotate(-21.7)" fill="#3bc1c9"/></g></svg>