<svg xmlns="http://www.w3.org/2000/svg" width="100" height="100" viewBox="0 0 100 100"><ellipse cx="67" cy="21.6" rx="16.6" ry="13" transform="rotate(-72.2 67.03 21.573)"/><ellipse cx="84.8" cy="49.6" rx="16.6" ry="13" transform="rotate(-68.3 84.732 49.62)"/><path d="M50 92.2c-9 0-16.5 2.1-22.7 2.5S16 89.2 16 84.4C16 72 28.1 67.7 31.8 60.2c2.8-5.4 1.9-21.7 18.2-21.7s15.4 16.3 18.2 21.7C71.9 67.7 84 72 84 84.4c0 4.8-5.1 10.7-11.3 10.3S59 92.2 50 92.2z"/><ellipse cx="33" cy="21.6" rx="13" ry="16.6" transform="rotate(-17.8 32.942 21.515)"/><ellipse cx="15.2" cy="49.6" rx="13" ry="16.6" transform="rotate(-21.7 15.09 49.68)"/></svg>